<svg width="13" height="13" viewBox="0 0 13 13" fill="none" xmlns="http://www.w3.org/2000/svg">
<path d="M6.22489 9.59693C8.08712 9.59693 9.59675 8.0873 9.59675 6.22507C9.59675 4.36284 8.08712 2.85321 6.22489 2.85321C4.36266 2.85321 2.85303 4.36284 2.85303 6.22507C2.85303 8.0873 4.36266 9.59693 6.22489 9.59693Z" stroke="#155DA4" stroke-linecap="round" stroke-linejoin="round"/>
<path d="M9.92894 9.92875L9.8615 9.86132M9.8615 2.58847L9.92894 2.52103L9.8615 2.58847ZM2.52122 9.92875L2.58865 9.86132L2.52122 9.92875ZM6.22508 1.07891V1.03741V1.07891ZM6.22508 11.4124V11.3709V11.4124ZM1.0791 6.22489H1.0376H1.0791ZM11.4126 6.22489H11.3711H11.4126ZM2.58865 2.58847L2.52122 2.52103L2.58865 2.58847Z" stroke="#155DA4" stroke-linecap="round" stroke-linejoin="round"/>
</svg>
